<svg xmlns="http://www.w3.org/2000/svg" viewBox="0 0 1200 220" role="img" aria-labelledby="title desc">
  <title id="title">Silver Fox wolf paw-print trail</title>
  <desc id="desc">Eight solid violet wolf paw prints appear from left to right, remain as a completed trail, and reset together.</desc>
  <defs><g id="paw" fill="#A767E1"><path d="M0 0 C3.231 1.273 3.759 3.577 5.136 6.61 C13.013 25.925 15.404 48.112 19.321 68.525 C19.598 69.969 19.876 71.414 20.154 72.858 C20.8 76.218 21.442 79.578 22.076 82.939 C23.955 92.787 23.955 92.787 25.174 96.663 C27.089 103.686 27.542 113.632 24.467 120.362 C20.056 127.348 14.152 132.763 6.03 134.8 C-2.962 135.916 -10.557 135.267 -17.97 129.8 C-23.761 124.656 -27.592 118.995 -28.162 111.168 C-28.241 103.809 -27.244 97.296 -25.47 90.175 C-22.378 77.095 -19.84 63.939 -17.425 50.719 C-15.657 41.041 -13.738 31.441 -11.357 21.894 C-11.152 21.07 -10.946 20.246 -10.735 19.397 C-5.631 -0.572 -5.631 -0.572 0 0 Z " transform="translate(347.970458984375,42.2001953125)"/>
<path d="M0 0 C2.348 0.219 2.348 0.219 5 1 C9.667 7.276 11.019 16.677 12.801 24.152 C13.06 25.237 13.319 26.322 13.586 27.44 C16.672 40.575 19.21 53.814 21.75 67.062 C22.472 70.807 23.195 74.551 23.921 78.295 C24.367 80.595 24.81 82.896 25.25 85.197 C26.116 89.681 26.999 94.139 28.131 98.564 C30.099 106.344 30.132 114.931 26 122 C21.698 128.393 16.445 132.792 9 135 C0.076 136.25 -7.677 135.486 -15 130 C-20.357 125.012 -24.413 120.389 -25.406 112.961 C-25.66 103.244 -24.015 94.472 -21.768 85.038 C-19.935 77.309 -18.296 69.569 -16.809 61.766 C-16.618 60.771 -16.428 59.777 -16.232 58.752 C-15.467 54.737 -14.704 50.722 -13.958 46.703 C-12.002 36.181 -9.839 25.776 -6.969 15.461 C-6.734 14.597 -6.498 13.733 -6.256 12.843 C-4.824 7.893 -3.105 4.121 0 0 Z " transform="translate(511,42)"/>
<path d="M0 0 C26.742 22.66 27.092 64.134 30.045 96.191 C30.299 98.932 30.562 101.673 30.825 104.414 C35.21 150.135 39.27 205.658 9.027 244.383 C-1.491 256.872 -14.433 265.259 -30.953 266.734 C-49.923 268.164 -68.522 260.77 -82.953 248.734 C-92.672 240.229 -100.824 231.127 -106.953 219.734 C-107.272 219.142 -107.591 218.549 -107.92 217.939 C-129.26 177.322 -124.762 124.433 -111.641 81.855 C-101.031 48.969 -83.366 15.763 -51.953 -1.266 C-34.856 -9.659 -16.261 -11.988 0 0 Z " transform="translate(362.953125,214.265625)"/>
<path d="M0 0 C2.532 1.943 4.873 3.988 7.215 6.156 C7.71 6.606 8.206 7.055 8.717 7.518 C43.848 39.651 57.666 90.391 60.09 136.539 C61.275 170.836 56.34 203.656 34.215 231.156 C33.673 231.864 33.132 232.572 32.574 233.301 C20.153 248.702 1.785 258.151 -17.348 261.844 C-32.764 263.245 -47.515 260.403 -59.918 250.707 C-85.376 228.93 -92.647 194.12 -95.535 162.156 C-96.198 148.884 -95.646 135.815 -94.535 122.594 C-94.469 121.789 -94.403 120.983 -94.335 120.154 C-85.86 16.693 -85.86 16.693 -62.785 -3.844 C-42.787 -19.102 -19.366 -12.82 0 0 Z " transform="translate(558.78515625,218.84375)"/>
<path d="M0 0 C2.25 0 2.25 0 5 1 C8.61 7.135 10.438 13.369 12.125 20.25 C12.412 21.404 12.699 22.557 12.995 23.746 C16.775 39.322 19.594 55.122 22.536 70.872 C22.639 71.424 22.639 71.424 23.163 74.217 C23.55 76.287 23.934 78.357 24.314 80.428 C25.447 86.491 26.817 92.45 28.383 98.417 C30.225 106.13 30.158 115.055 26 122 C21.19 128.91 15.882 132.373 8 135 C-2.212 135.935 -9.293 134.163 -17.312 127.812 C-23.323 122.114 -25.21 116.536 -25.562 108.312 C-25.339 101.983 -24.27 96.22 -22.773 90.078 C-20.847 81.893 -19.106 73.694 -17.535 65.434 C-17.433 64.902 -17.433 64.902 -16.918 62.21 C-16.089 57.863 -15.264 53.515 -14.45 49.165 C-12.312 37.77 -10.049 26.46 -6.934 15.285 C-6.701 14.432 -6.468 13.579 -6.228 12.699 C-4.803 7.805 -3.064 4.081 0 0 Z " transform="translate(152,208)"/>
<path d="M0 0 C2.25 0 2.25 0 5 1 C8.262 5.826 9.983 11.504 11.469 17.082 C11.677 17.85 11.886 18.618 12.1 19.409 C14.476 28.419 16.216 37.556 17.939 46.709 C18.892 51.768 19.869 56.823 20.844 61.879 C21.031 62.856 21.219 63.833 21.413 64.839 C25.867 87.945 25.867 87.945 28.538 98.03 C30.474 106.277 29.936 115.53 25.613 122.848 C21.097 128.874 15.514 133.547 8 135 C-1.809 136.073 -9.078 134.3 -16.812 128.188 C-21.878 123.545 -24.738 118.049 -25.183 111.168 C-25.258 103.589 -24.404 96.893 -22.562 89.562 C-22.005 87.219 -21.455 84.874 -20.91 82.527 C-20.761 81.885 -20.612 81.242 -20.458 80.58 C-19.106 74.663 -17.946 68.715 -16.809 62.754 C-16.618 61.76 -16.428 60.767 -16.232 59.743 C-15.467 55.731 -14.703 51.719 -13.958 47.704 C-12.005 37.2 -9.847 26.818 -6.969 16.523 C-6.734 15.668 -6.498 14.812 -6.256 13.931 C-4.764 8.794 -2.835 4.539 0 0 Z " transform="translate(704,208)"/>
<path d="M0 0 C13.543 10.415 21.121 26.238 26.816 41.992 C27.161 42.944 27.505 43.896 27.86 44.877 C31.771 55.892 34.914 67.106 38 78.375 C38.609 80.579 39.218 82.783 39.827 84.987 C41.572 91.319 43.293 97.658 45 104 C45.233 104.867 45.467 105.733 45.707 106.626 C56.907 148.329 65.442 198.31 42.945 237.996 C34.651 250.804 22.664 260.479 7.723 264.113 C-13.461 268.549 -32.911 262.225 -50.875 251.242 C-77.707 233.215 -92.642 205.09 -99 174 C-99.196 173.052 -99.392 172.105 -99.594 171.128 C-102.674 155.458 -103.391 139.982 -103.438 124.062 C-103.444 123.172 -103.45 122.281 -103.456 121.363 C-103.623 83.967 -94.906 42.347 -69 14 C-68.584 13.532 -68.584 13.532 -66.48 11.164 C-49.167 -7.341 -21.982 -16.726 0 0 Z " transform="translate(179,380)"/>
<path d="M0 0 C8.128 6.967 15.475 14.808 21 24 C21.343 24.553 21.687 25.106 22.041 25.676 C30.957 40.131 36.275 55.237 40.312 71.688 C40.555 72.672 40.798 73.656 41.048 74.67 C44.616 90 45.409 105.078 45.375 120.75 C45.374 121.69 45.374 122.631 45.373 123.599 C45.262 165.572 36.782 205.704 7.312 237.062 C-9.424 253.204 -30.884 262.735 -54.196 262.403 C-71.604 261.773 -84.127 254.471 -95.934 241.949 C-111.955 223.002 -114.452 196.495 -114.375 172.688 C-114.373 171.901 -114.371 171.114 -114.368 170.303 C-114.205 141.077 -106.801 113.972 -99 86 C-98.744 85.079 -98.488 84.159 -98.224 83.21 C-77.279 8.027 -77.279 8.027 -52.641 -6.598 C-34.788 -16.079 -15.804 -11.446 0 0 Z " transform="translate(739,383)"/>
<path d="M0 0 C18.289 16.33 30.989 34.689 43.164 55.816 C58.607 82.548 76.351 106.724 96.375 130.188 C102.032 136.827 107.433 143.649 112.75 150.562 C113.247 151.206 113.744 151.85 114.255 152.513 C121.237 161.587 127.747 170.814 133.75 180.562 C134.353 181.498 134.957 182.434 135.578 183.398 C150.043 206.659 157.553 236.321 151.572 263.49 C145.156 288.032 130.337 310.401 108.379 323.523 C73.342 343.574 32.784 333.148 -3.828 323.254 C-15.489 320.081 -27.125 316.817 -38.762 313.553 C-47.677 311.055 -56.598 308.631 -65.625 306.562 C-66.419 306.379 -67.214 306.195 -68.032 306.006 C-110.473 296.678 -149.699 307.621 -190.392 319.106 C-279.128 344.139 -279.128 344.139 -317.312 323.438 C-339.894 309.715 -353.912 286.73 -360.25 261.562 C-363.459 247.566 -362.576 230.227 -358.25 216.562 C-358.051 215.916 -357.853 215.269 -357.648 214.603 C-347.389 181.689 -325.321 154.738 -303.266 128.882 C-297.056 121.596 -291.09 114.148 -285.25 106.562 C-284.764 105.935 -284.278 105.307 -283.777 104.66 C-271.623 88.925 -261.352 72.277 -251.439 55.066 C-246.991 47.367 -242.293 39.89 -237.25 32.562 C-236.762 31.849 -236.274 31.136 -235.771 30.402 C-224.947 14.828 -211.752 0.188 -195.25 -9.438 C-194.584 -9.835 -193.917 -10.232 -193.231 -10.642 C-174.723 -21.522 -154.351 -27.873 -133.25 -31.438 C-132.62 -31.55 -132.62 -31.55 -129.434 -32.117 C-86.718 -38.62 -33.513 -29.002 0 0 Z " transform="translate(534.25,552.4375)"/></g></defs>
  <g opacity="0" transform="translate(78 72) rotate(84) scale(.09) translate(-430 -464)"><use href="#paw"/><animate attributeName="opacity" values="0;0;1;1;0;0" keyTimes="0;.03;.04;.88;.92;1" dur="9s" repeatCount="indefinite"/></g>
  <g opacity="0" transform="translate(225 148) rotate(96) scale(.09) translate(-430 -464)"><use href="#paw"/><animate attributeName="opacity" values="0;0;1;1;0;0" keyTimes="0;.12;.16;.88;.92;1" dur="9s" repeatCount="indefinite"/></g>
  <g opacity="0" transform="translate(375 72) rotate(85) scale(.09) translate(-430 -464)"><use href="#paw"/><animate attributeName="opacity" values="0;0;1;1;0;0" keyTimes="0;.22;.26;.88;.92;1" dur="9s" repeatCount="indefinite"/></g>
  <g opacity="0" transform="translate(525 148) rotate(95) scale(.09) translate(-430 -464)"><use href="#paw"/><animate attributeName="opacity" values="0;0;1;1;0;0" keyTimes="0;.32;.36;.88;.92;1" dur="9s" repeatCount="indefinite"/></g>
  <g opacity="0" transform="translate(675 72) rotate(86) scale(.09) translate(-430 -464)"><use href="#paw"/><animate attributeName="opacity" values="0;0;1;1;0;0" keyTimes="0;.42;.46;.88;.92;1" dur="9s" repeatCount="indefinite"/></g>
  <g opacity="0" transform="translate(825 148) rotate(94) scale(.09) translate(-430 -464)"><use href="#paw"/><animate attributeName="opacity" values="0;0;1;1;0;0" keyTimes="0;.52;.56;.88;.92;1" dur="9s" repeatCount="indefinite"/></g>
  <g opacity="0" transform="translate(975 72) rotate(87) scale(.09) translate(-430 -464)"><use href="#paw"/><animate attributeName="opacity" values="0;0;1;1;0;0" keyTimes="0;.62;.66;.88;.92;1" dur="9s" repeatCount="indefinite"/></g>
  <g opacity="0" transform="translate(1122 148) rotate(93) scale(.09) translate(-430 -464)"><use href="#paw"/><animate attributeName="opacity" values="0;0;1;1;0;0" keyTimes="0;.72;.76;.88;.92;1" dur="9s" repeatCount="indefinite"/></g>
</svg>
