<svg xmlns="http://www.w3.org/2000/svg" viewBox="0 0 1200 230" role="img" aria-labelledby="title desc">
  <title id="title">Walking wolf paw trail</title>
  <desc id="desc">Wolf paw prints face right and plant one at a time from left to right in a continuous walking loop.</desc>
  <defs>
    <linearGradient id="silverViolet" x1="0" y1="0" x2="1" y2="1">
      <stop offset="0" stop-color="#d8d5e2"/>
      <stop offset="0.52" stop-color="#a8a0bd"/>
      <stop offset="1" stop-color="#7c3aed"/>
    </linearGradient>
    <g id="wolf-paw" fill="url(#silverViolet)">
      <path d="M347 42 C337 43 333 69 328 96 L320 143 C317 162 328 176 347 177 C365 177 376 163 373 145 L364 96 C359 69 354 43 347 42 Z"/>
      <path d="M513 42 C503 43 499 69 494 96 L486 143 C483 162 494 176 513 177 C531 177 542 163 539 145 L530 96 C525 69 520 43 513 42 Z"/>
      <path d="M154 208 C144 209 140 235 135 262 L127 309 C124 328 135 342 154 343 C172 343 183 329 180 311 L171 262 C166 235 161 209 154 208 Z"/>
      <path d="M706 208 C696 209 692 235 687 262 L679 309 C676 328 687 342 706 343 C724 343 735 329 732 311 L723 262 C718 235 713 209 706 208 Z"/>
      <path d="M338 206 C296 205 266 241 252 286 C241 321 239 372 244 402 C250 443 281 477 322 480 C367 483 392 453 396 390 C398 357 394 300 390 266 C386 229 367 207 338 206 Z"/>
      <path d="M522 206 C564 205 594 241 608 286 C619 321 621 372 616 402 C610 443 579 477 538 480 C493 483 468 453 464 390 C462 357 466 300 470 266 C474 229 493 207 522 206 Z"/>
      <path d="M153 372 C120 372 92 406 81 451 C72 489 75 539 85 575 C96 616 124 642 163 645 C201 648 229 625 234 581 C238 548 228 502 217 458 C205 410 185 373 153 372 Z"/>
      <path d="M707 372 C740 372 768 406 779 451 C788 489 785 539 775 575 C764 616 736 642 697 645 C659 648 631 625 626 581 C622 548 632 502 643 458 C655 410 675 373 707 372 Z"/>
      <path d="M430 519 C363 518 320 539 291 583 C268 619 248 650 222 682 C190 721 172 756 173 799 C174 845 202 881 247 886 C284 891 324 874 365 863 C390 856 410 853 430 853 C450 853 470 856 495 863 C536 874 576 891 613 886 C658 881 686 845 687 799 C688 756 670 721 638 682 C612 650 592 619 569 583 C540 539 497 518 430 519 Z"/>
    </g>
  </defs>
  <style>
    .step {
      opacity: 0;
      animation: footprint 6.4s linear infinite;
      animation-delay: var(--delay);
    }
    .mark {
      transform-box: fill-box;
      transform-origin: center;
      animation: plant 6.4s ease-out infinite;
      animation-delay: var(--delay);
    }
    .s1 { --delay: 0s; }
    .s2 { --delay: .8s; }
    .s3 { --delay: 1.6s; }
    .s4 { --delay: 2.4s; }
    .s5 { --delay: 3.2s; }
    .s6 { --delay: 4s; }
    .s7 { --delay: 4.8s; }
    .s8 { --delay: 5.6s; }
    @keyframes footprint {
      0%, 2% { opacity: 0; }
      5% { opacity: .35; }
      8%, 11% { opacity: .96; }
      14%, 100% { opacity: 0; }
    }
    @keyframes plant {
      0%, 3% { transform: scale(.8); }
      8%, 100% { transform: scale(1); }
    }
  </style>
  <g class="step s1" transform="translate(7 5) rotate(84 66 72) scale(.15)"><g class="mark"><use href="#wolf-paw"/></g></g>
  <g class="step s2" transform="translate(150 82) rotate(96 66 72) scale(.15)"><g class="mark"><use href="#wolf-paw"/></g></g>
  <g class="step s3" transform="translate(297 5) rotate(85 66 72) scale(.15)"><g class="mark"><use href="#wolf-paw"/></g></g>
  <g class="step s4" transform="translate(440 82) rotate(95 66 72) scale(.15)"><g class="mark"><use href="#wolf-paw"/></g></g>
  <g class="step s5" transform="translate(587 5) rotate(86 66 72) scale(.15)"><g class="mark"><use href="#wolf-paw"/></g></g>
  <g class="step s6" transform="translate(730 82) rotate(94 66 72) scale(.15)"><g class="mark"><use href="#wolf-paw"/></g></g>
  <g class="step s7" transform="translate(877 5) rotate(87 66 72) scale(.15)"><g class="mark"><use href="#wolf-paw"/></g></g>
  <g class="step s8" transform="translate(1020 82) rotate(93 66 72) scale(.15)"><g class="mark"><use href="#wolf-paw"/></g></g>
</svg>
